<?xml version="1.0" standalone="no"?>
<!DOCTYPE svg PUBLIC "-//W3C//DTD SVG 20010904//EN"
 "http://www.w3.org/TR/2001/REC-SVG-20010904/DTD/svg10.dtd">
<svg version="1.0" xmlns="http://www.w3.org/2000/svg"
 width="380.000000pt" height="380.000000pt" viewBox="0 0 380.000000 380.000000"
 preserveAspectRatio="xMidYMid meet">
<metadata>
Created by potrace 1.11, written by Peter Selinger 2001-2013
</metadata>
<g transform="translate(0.000000,380.000000) scale(0.100000,-0.100000)"
fill="#000000" stroke="none">
<path d="M0 1900 l0 -1900 1900 0 1900 0 0 1900 0 1900 -1900 0 -1900 0 0
-1900z m1993 435 c178 -38 317 -184 348 -367 48 -290 -219 -557 -508 -509
-192 33 -341 182 -374 374 -37 224 119 453 344 502 81 18 108 18 190 0z m1036
-4 c33 -10 80 -30 103 -44 54 -31 139 -120 166 -173 69 -135 69 -293 0 -428
-27 -53 -112 -142 -166 -173 -140 -82 -324 -82 -464 0 -54 31 -139 120 -166
173 -69 135 -69 293 0 428 27 53 112 142 166 173 106 62 247 80 361 44z"/>
</g>
</svg>
