<?xml version="1.0" standalone="no"?>
<!DOCTYPE svg PUBLIC "-//W3C//DTD SVG 20010904//EN"
 "http://www.w3.org/TR/2001/REC-SVG-20010904/DTD/svg10.dtd">
<svg version="1.0" xmlns="http://www.w3.org/2000/svg"
 width="99.000000pt" height="99.000000pt" viewBox="0 0 99.000000 99.000000"
 preserveAspectRatio="xMidYMid meet">
<metadata>
Created by potrace 1.11, written by Peter Selinger 2001-2013
</metadata>
<g transform="translate(0.000000,99.000000) scale(0.100000,-0.100000)"
fill="#000000" stroke="none">
<path d="M486 981 c-21 -5 -35 -18 -55 -56 -15 -27 -47 -86 -70 -130 -24 -44
-62 -114 -84 -155 -22 -41 -49 -91 -60 -110 -109 -193 -197 -371 -200 -405 -8
-71 32 -114 108 -116 80 -3 87 -1 75 20 -14 26 -13 51 3 81 72 136 136 253
159 293 15 26 31 59 34 74 11 42 8 147 -5 170 -16 31 -4 35 102 34 89 -1 127
-13 98 -30 -10 -6 -14 -31 -14 -83 l0 -75 93 -179 c52 -98 100 -192 108 -207
13 -27 13 -53 -2 -87 -6 -15 12 -16 113 -11 7 1 28 16 46 34 30 30 33 38 29
77 -2 24 -10 55 -17 69 -27 52 -203 390 -264 506 -35 66 -83 157 -105 202 -23
45 -47 84 -53 86 -5 2 -23 1 -39 -2z m52 -135 c-2 -15 -10 -21 -27 -21 -28 0
-38 30 -13 44 23 13 44 2 40 -23z m-60 -79 c2 -10 -3 -17 -12 -17 -18 0 -29
16 -21 31 9 14 29 6 33 -14z"/>
</g>
</svg>
