<?xml version="1.0" encoding="utf-8"?>
<!-- Generator: Adobe Illustrator 23.0.0, SVG Export Plug-In . SVG Version: 6.00 Build 0)  -->
<svg version="1.1" id="Capa_1" xmlns="http://www.w3.org/2000/svg" xmlns:xlink="http://www.w3.org/1999/xlink" x="0px" y="0px"
	 viewBox="0 0 49.4 58.7" style="enable-background:new 0 0 49.4 58.7;" xml:space="preserve">
<style type="text/css">
	.st0{fill:#FFFFFF;}
	.st1{fill:#A91805;}
</style>
<polygon class="st0" points="25.1,-2.6 32.1,19.4 22.1,47.4 15.1,63.4 -15.9,64.4 -11.9,-5.6 "/>
<g>
	<path class="st1" d="M49.4,43.7v15h-46V46.8l20.8-19.2c3.9-3.7,4.5-5.9,4.5-7.9c0-2.8-1.9-4.5-5.6-4.5c-3.4,0-6.7,1.9-8.4,5.3
		L0,13.3C4.2,5.4,12.5,0,24.9,0c13.6,0,23.2,7.1,23.2,18c0,5.7-1.5,10.7-9.8,18.3L30,43.7H49.4z"/>
</g>
</svg>
