<?xml version="1.0" encoding="utf-8"?>
<!-- Generator: Adobe Illustrator 23.0.0, SVG Export Plug-In . SVG Version: 6.00 Build 0)  -->
<svg version="1.1" id="Capa_1" xmlns="http://www.w3.org/2000/svg" xmlns:xlink="http://www.w3.org/1999/xlink" x="0px" y="0px"
	 viewBox="0 0 48.9 58.7" style="enable-background:new 0 0 48.9 58.7;" xml:space="preserve">
<style type="text/css">
	.st0{fill:#FFFFFF;}
	.st1{fill:#A91805;}
</style>
<polygon class="st0" points="-1.2,-0.6 19.8,-0.6 26.8,10.4 28.8,26.4 33.8,40.4 29.8,50.4 20.8,60.4 -5.2,60.4 "/>
<g>
	<path class="st1" d="M48.9,39c0,9.8-7.9,19.7-26.2,19.7C14.8,58.7,6.2,57,0,53.6l6.6-14.3c4.9,2.9,10.6,4.2,15.4,4.2
		c4.3,0,7.5-1.5,7.5-4.4c0-2.5-1.9-3.9-6.8-3.9H15V23.2l8.4-8.6H3V0h42.8v11.9L35.1,22.7C44.1,24.9,48.9,31.1,48.9,39z"/>
</g>
</svg>
