<?xml version="1.0" encoding="utf-8"?>
<!-- Generator: Adobe Illustrator 23.0.0, SVG Export Plug-In . SVG Version: 6.00 Build 0)  -->
<svg version="1.1" id="Capa_1" xmlns="http://www.w3.org/2000/svg" xmlns:xlink="http://www.w3.org/1999/xlink" x="0px" y="0px"
	 viewBox="0 0 15.9 12.9" style="enable-background:new 0 0 15.9 12.9;" xml:space="preserve">
<style type="text/css">
	.st0{fill:#ECDE9A;}
</style>
<path class="st0" d="M15.6,6.7l-2.4-2.4V1.5c0-0.5-0.4-0.9-0.9-0.9c-0.5,0-0.9,0.4-0.9,0.9v1L9.6,0.7c-0.9-0.9-2.4-0.9-3.3,0l-6,6
	C-0.1,7-0.1,7.6,0.3,8c0.4,0.3,0.9,0.3,1.3,0l0.7-0.7c0,0,0,0.1,0,0.1v3.8c0,0.9,0.7,1.6,1.6,1.6h2.6V8.9h3v4.1H12
	c0.9,0,1.6-0.7,1.6-1.6V7.4c0-0.1,0-0.1,0-0.1L14.3,8c0.2,0.2,0.4,0.3,0.6,0.3c0.2,0,0.5-0.1,0.6-0.3C15.9,7.6,15.9,7,15.6,6.7z"/>
</svg>
