<?xml version="1.0" encoding="utf-8"?>
<!-- Generator: Adobe Illustrator 23.0.0, SVG Export Plug-In . SVG Version: 6.00 Build 0)  -->
<svg version="1.1" id="Capa_1" xmlns="http://www.w3.org/2000/svg" xmlns:xlink="http://www.w3.org/1999/xlink" x="0px" y="0px"
	 viewBox="0 0 6.5 16.4" style="enable-background:new 0 0 6.5 16.4;" xml:space="preserve">
<style type="text/css">
	.st0{fill:#ECDE9A;}
</style>
<path class="st0" d="M3.3,4.2c1.2,0,1.7,0,1.7,0c0.8,0,1.5-0.7,1.5-1.5V1.5C6.5,0.6,5.8,0,5,0H3.3C2.4,0,1.6,1,1,2.5
	C0.4,3.9,0,5.9,0,8.3c0,2.4,0.4,4.2,1,5.7c0.6,1.4,1.5,2.5,2.3,2.5H5c0.8,0,1.5-0.7,1.5-1.5v-1.3c0-0.8-0.7-1.5-1.5-1.5
	c0,0-0.6,0-1.7,0c-1.1,0-1.4-2.8-1.4-4S2.2,4.2,3.3,4.2z"/>
</svg>
