<?xml version="1.0" encoding="utf-8"?>
<!-- Generator: Adobe Illustrator 23.0.0, SVG Export Plug-In . SVG Version: 6.00 Build 0)  -->
<svg version="1.1" id="Capa_1" xmlns="http://www.w3.org/2000/svg" xmlns:xlink="http://www.w3.org/1999/xlink" x="0px" y="0px"
	 viewBox="0 0 61.7 51.6" style="enable-background:new 0 0 61.7 51.6;" xml:space="preserve">
<style type="text/css">
	.st0{fill:#FFFFFF;}
</style>
<g>
	<g>
		<path class="st0" d="M7.3,51.6c-2-0.2-3.6-1.3-5-2.7c-2.9-3-3-7.8,0-10.8c3.5-3.6,7.1-7.1,10.7-10.7C20,20.2,27.2,13.1,34.3,5.9
			c0.5-0.5,0.8-1.1,1.1-1.8c0.1-0.2-0.1-0.6-0.1-0.9c-0.1-0.3-0.2-0.7-0.1-1c0.3-1,0.9-1.9,2-2.2c1.1-0.3,1.9,0.1,2.7,0.9
			c3.6,3.6,7.2,7.2,10.8,10.8c0.2,0.2,0.3,0.3,0.5,0.5c0.6,0.8,0.7,1.7,0.2,2.6c-0.5,0.9-1.3,1.5-2.4,1.7c-0.2,0-0.4,0-0.5-0.1
			c-0.4-0.3-0.8-0.3-1.2-0.1c-0.6,0.3-1.1,0.6-1.6,1.1c-2.7,2.7-5.4,5.3-8.1,8c-8,8-15.9,15.9-23.9,23.9c-1.5,1.5-3.3,2.3-5.6,2.3
			C7.9,51.6,7.6,51.6,7.3,51.6z M12.2,47.7c2.4-2.4,4.8-4.8,7.2-7.2c8.2-8.2,16.4-16.4,24.6-24.6c0.9-0.9,1.9-1.7,3.3-1.9
			c0.5-0.1,1,0,1.5,0.1c0.3,0,0.5,0.1,0.6-0.2c0-0.1-0.1-0.4-0.2-0.5C45.8,10,42.4,6.7,39.1,3.3c-0.3-0.3-0.6-0.6-1-0.9
			c-0.1-0.1-0.3-0.2-0.4-0.1c-0.1,0.1-0.3,0.3-0.2,0.5C38,4.6,37.2,6,36,7.3c-1.4,1.5-2.9,2.9-4.3,4.3c-9.3,9.3-18.6,18.6-27.8,27.8
			c-2.2,2.2-2.2,5.6,0,7.8c1.2,1.3,2.6,2.1,4.6,2.1C9.8,49.4,11.1,48.8,12.2,47.7z"/>
		<path class="st0" d="M52.1,17.7c-1.8,2.1-3.6,4.1-5.3,6.3c-1.2,1.5-2.1,3.1-3.1,4.8c-2.9,5.1,0.2,10.4,4,12.4
			c6.3,3.3,14-1.3,14-8.4c0-1.4-0.5-2.6-1.1-3.8c-1.4-2.9-3.4-5.3-5.5-7.7C54.2,20,53.2,19,52.1,17.7z"/>
		<path class="st0" d="M46.3,12.9c-0.3,0-0.6,0-0.9,0c-4.2,0-8.4,0-12.6,0c-0.3,0-0.6,0.1-0.7,0.3c-9.1,9.1-18.2,18.1-27.2,27.2
			c-1.7,1.7-1.7,4.2,0,6c0.7,0.8,1.5,1.5,2.6,1.7c1.5,0.3,2.8-0.1,3.9-1.2c2.4-2.4,4.8-4.8,7.2-7.2c8.2-8.2,16.5-16.5,24.7-24.7
			C44.1,14,45.1,13.3,46.3,12.9z"/>
	</g>
</g>
</svg>
