<?xml version="1.0" encoding="utf-8"?>
<!-- Generator: Adobe Illustrator 23.0.0, SVG Export Plug-In . SVG Version: 6.00 Build 0)  -->
<svg version="1.1" id="Layer_1" xmlns="http://www.w3.org/2000/svg" xmlns:xlink="http://www.w3.org/1999/xlink" x="0px" y="0px"
	 viewBox="0 0 610 233.4" style="enable-background:new 0 0 610 233.4;" xml:space="preserve">
<style type="text/css">
	.st0{display:none;fill:none;stroke:#000000;stroke-width:34;stroke-miterlimit:10;}
	.st1{fill:#FFFFFF;}
</style>
<polygon class="st0" points="2464,21.4 2464,-143.8 2321,-226.3 2178,-143.8 2178,21.4 "/>
<g>
	<g>
		<g>
			<path class="st1" d="M27.4,232.8h-3.8l-3-7.5l-2.5-7.6l-2.5,7.6l-2.9,7.5H8.8l-8.8-24h5.1l5.6,17.3l5.8-17.3h2.9l6,17.3l5.5-17.3
				H36L27.4,232.8z"/>
			<path class="st1" d="M70.3,232.8H52.4c0-8,0-16,0-24h17.9v4.4H56.9v5.5h13v4.2h-13v5.4h13.5L70.3,232.8L70.3,232.8z"/>
			<path class="st1" d="M119.4,225.8h-6.8v7.1h-4.5v-24c3.8,0,7.5,0,11.3,0C131.1,208.8,131.1,225.8,119.4,225.8z M112.6,221.6h6.8
				c5.8,0,5.8-8.5,0-8.5h-6.8V221.6z"/>
			<path class="st1" d="M166.2,232.8h-5.4l-7-8h-4.3v8H145v-24c3.8,0,7.6,0,11.4,0c5.6,0,8.6,3.8,8.6,7.9c0,3.3-1.5,6.6-6.1,7.5
				l7.3,8.2V232.8z M149.5,213.1v7.7h6.9c2.9,0,4.1-1.9,4.1-3.8c0-1.9-1.3-3.8-4.1-3.8L149.5,213.1L149.5,213.1z"/>
			<path class="st1" d="M205.3,221c-0.1,6.2-3.9,12.4-12.3,12.4c-8.4,0-12.3-6.1-12.3-12.4s4-12.6,12.3-12.6
				C201.2,208.4,205.3,214.7,205.3,221z M185.1,221.1c0.1,3.9,2.2,8.1,7.9,8.1c5.6,0,7.8-4.2,7.8-8.2c0.1-4-2.2-8.6-7.8-8.6
				C187.3,212.5,185,217,185.1,221.1z"/>
			<path class="st1" d="M234.2,232.9h-4.7l-10-24.1h5.1l7.2,18.7l7.3-18.7h5.1L234.2,232.9z"/>
			<path class="st1" d="M260.6,232.8v-24h4.5v24H260.6z"/>
			<path class="st1" d="M304.1,220.6c0.1,6.1-3.6,12.2-12,12.2c-2.9,0-6.5,0-9.4,0v-24c2.9,0,6.5,0,9.4,0
				C300.4,208.9,304,214.7,304.1,220.6z M287.2,228.5h4.9c5.4,0,7.6-4,7.5-7.9c-0.1-3.7-2.3-7.5-7.5-7.5h-4.9V228.5z"/>
			<path class="st1" d="M338.7,232.8h-17.9c0-8,0-16,0-24h17.9v4.4h-13.5v5.5h13v4.2h-13v5.4h13.5V232.8z"/>
			<path class="st1" d="M397.7,232.8h-5.4l-7-8H381v8h-4.5v-24c3.8,0,7.6,0,11.4,0c5.6,0,8.6,3.8,8.6,7.9c0,3.3-1.5,6.6-6.1,7.5
				l7.3,8.2L397.7,232.8L397.7,232.8z M381,213.1v7.7h6.9c2.9,0,4.1-1.9,4.1-3.8c0-1.9-1.3-3.8-4.1-3.8L381,213.1L381,213.1z"/>
			<path class="st1" d="M431.1,232.8h-17.9c0-8,0-16,0-24h17.9v4.4h-13.5v5.5h13v4.2h-13v5.4h13.5V232.8z"/>
			<path class="st1" d="M463.8,214.6c-0.8-1.4-3.1-2.7-5.7-2.7c-3.4,0-5,1.4-5,3.2c0,2.1,2.5,2.7,5.3,3c5,0.6,9.7,1.9,9.7,7.6
				c0,5.3-4.7,7.6-10.1,7.6c-4.9,0-8.7-1.5-10.4-5.9l3.8-2c1.1,2.6,3.8,3.8,6.7,3.8c2.8,0,5.5-1,5.5-3.6c0-2.3-2.4-3.2-5.5-3.5
				c-4.9-0.6-9.4-1.9-9.4-7.3c0-4.9,4.9-6.9,9.3-7c3.7,0,7.6,1.1,9.4,4.8L463.8,214.6z"/>
			<path class="st1" d="M506.3,208.9v13.7c0,7.1-4.3,10.7-10.4,10.7c-5.8,0-10.6-3.5-10.6-10.7v-13.7h4.5v13.7
				c0,4.3,2.5,6.6,6.2,6.6s5.9-2.5,5.9-6.6v-13.7H506.3z"/>
			<path class="st1" d="M528.9,208.9v19.8h12.3v4.2h-16.8v-24H528.9z"/>
			<path class="st1" d="M560.8,213h-7.6v-4.1c6.9,0,12.8,0,19.7,0v4.1h-7.6v19.9h-4.5L560.8,213L560.8,213z"/>
			<path class="st1" d="M604.1,214.6c-0.8-1.4-3.1-2.7-5.7-2.7c-3.4,0-5,1.4-5,3.2c0,2.1,2.5,2.7,5.3,3c5,0.6,9.7,1.9,9.7,7.6
				c0,5.3-4.7,7.6-10.1,7.6c-4.9,0-8.7-1.5-10.4-5.9l3.8-2c1.1,2.6,3.8,3.8,6.7,3.8c2.8,0,5.5-1,5.5-3.6c0-2.3-2.4-3.2-5.5-3.5
				c-4.9-0.6-9.4-1.9-9.4-7.3c0-4.9,4.9-6.9,9.3-7c3.7,0,7.6,1.1,9.4,4.8L604.1,214.6z"/>
		</g>
		<g>
			<g>
				<g>
					<g>
						<path class="st1" d="M47.6,155.1c-0.1,12-7.5,24-23.8,24S0,167.4,0,155.2s7.8-24.4,23.8-24.4S47.7,143,47.6,155.1z M8.6,155.3
							c0.2,7.6,4.3,15.8,15.2,15.8s15-8.2,15.2-15.8c0.1-7.8-4.2-16.6-15.2-16.6S8.4,147.5,8.6,155.3z"/>
					</g>
				</g>
				<g>
					<g>
						<path class="st1" d="M111,131.6h8.7V178h-5.4v0.1l-24.4-31.3V178h-8.7v-46.3h7.1l22.7,28.7V131.6z"/>
					</g>
				</g>
				<g>
					<g>
						<path class="st1" d="M234.8,154.5c0.2,11.7-7,23.6-23.2,23.6c-5.7,0-12.5,0-18.2,0v-46.3c5.7,0,12.5,0,18.2,0
							C227.6,131.7,234.6,143,234.8,154.5z M202.1,169.6h9.5c10.5,0,14.7-7.7,14.5-15.2c-0.2-7.2-4.4-14.4-14.5-14.4h-9.5V169.6z"/>
					</g>
				</g>
				<g>
					<g>
						<path class="st1" d="M301.7,178H267c0-15.4,0-30.9,0-46.3h34.7v8.5h-26v10.7h25.1v8.1h-25.1v10.5h26V178z"/>
					</g>
				</g>
				<g>
					<g>
						<path class="st1" d="M375.3,144.5l-15.1,20.1h-1.7l-14.8-20.2v33.7H335v-46.3h10l14.5,19.9l14.5-19.9h10v46.3h-8.7V144.5z"/>
					</g>
				</g>
				<g>
					<g>
						<path class="st1" d="M451.6,169.3h-24.2l-4,8.7H414l20.8-46.3h9.5l20.8,46.3h-9.5L451.6,169.3z M439.5,141.4l-8.6,19.7h17.2
							L439.5,141.4z"/>
					</g>
				</g>
				<g>
					<g>
						<path class="st1" d="M526,131.6h8.7V178h-5.4v0.1l-24.4-31.3V178h-8.7v-46.3h7.1l22.7,28.7V131.6z"/>
					</g>
				</g>
				<g>
					<g>
						<path class="st1" d="M610,154.5c0.2,11.7-7,23.6-23.2,23.6c-5.7,0-12.5,0-18.2,0v-46.3c5.7,0,12.5,0,18.2,0
							C602.7,131.7,609.8,143,610,154.5z M577.3,169.6h9.5c10.5,0,14.7-7.7,14.5-15.2c-0.2-7.2-4.4-14.4-14.5-14.4h-9.5V169.6z"/>
					</g>
				</g>
			</g>
		</g>
		<g>
			<g>
				<g>
					<rect y="190.6" class="st1" width="608.4" height="4"/>
				</g>
			</g>
		</g>
	</g>
	<g>
		<polygon class="st1" points="0,115.4 0,18 17.6,18 17.6,97.8 57.6,97.8 57.6,115.4 		"/>
		<path class="st1" d="M167.9,115.4V18.2h40.2c7.9,0,14.7,2.8,20.3,8.4s8.4,12.4,8.4,20.1c0,5.9-1.6,11.3-4.8,15.9
			c3.2,2.1,5.8,4.7,8,8c3.3,4.6,4.9,9.8,4.9,16c0,7.9-2.8,14.7-8.4,20.3c-5.6,5.6-12.4,8.4-20.3,8.4h-48.3V115.4z M216.2,97.8
			c3,0,5.4-1.1,7.7-3.3c2.2-2.4,3.3-4.8,3.3-7.9s-1.1-5.7-3.2-7.9l-0.1-0.1c-2.1-2.2-4.4-3.1-7.7-3.1h-30.7v22.4L216.2,97.8
			L216.2,97.8z M208.1,57.9c3.1,0,5.5-1,7.7-3.2s3.2-4.7,3.2-7.9c0-3.1-1-5.5-3.2-7.7s-4.6-3.2-7.7-3.2h-22.6v22
			C185.5,57.9,208.1,57.9,208.1,57.9z"/>
		<g>
			<g>
				<polygon class="st1" points="300.7,115.1 300.7,36.5 270.6,36.5 270.6,19.1 349.8,19.1 349.8,36.5 319.7,36.5 319.7,115.1 				
					"/>
				<polygon class="st1" points="359.2,115.1 359.2,19.1 431.3,19.1 431.3,37.6 378.1,37.6 378.1,58.3 429.4,58.3 429.4,76.1 
					378.1,76.1 378.1,96.3 431.3,96.3 431.3,115.1 				"/>
				<path class="st1" d="M483.3,117.5c-21.7,0-35.4-7.7-41.9-23.7l-0.2-0.5l16-8.3l0.2,0.6c3.7,9.2,13.5,14.7,26.1,14.7
					c5,0,21.2-1,21.2-13.6c0-7.4-7-11.8-21.4-13.4c-19.6-2.3-37.8-7.5-37.8-29.3c0-19.3,18.7-28.1,37.3-28.2
					c18.6,0,31.6,6.6,37.8,19.2l0.3,0.5l-15.2,7.8l-0.3-0.5c-3.1-5.1-11.6-10.3-22-10.3c-11.8,0-19.1,4.6-19.1,12s8.2,9.9,20.6,11.3
					c20.1,2.5,38.7,7.9,38.7,30.8C523.7,109.5,502.8,117.5,483.3,117.5z"/>
				<polygon class="st1" points="560.9,115.1 560.9,36.5 530.8,36.5 530.8,19.1 610,19.1 610,36.5 579.9,36.5 579.9,115.1 				"/>
			</g>
		</g>
		<g>
			<g>
				<g>
					<path class="st1" d="M110.9,13.9c1.2,0,2.2-1,2.2-2.2s-1-2.2-2.2-2.2s-2.2,1-2.2,2.2C108.7,13,109.7,13.9,110.9,13.9z"/>
				</g>
				<g>
					<circle class="st1" cx="121.9" cy="5.5" r="5.5"/>
				</g>
			</g>
		</g>
		<path class="st1" d="M158.4,104.4c-0.3-3.2-1.3-6.3-3-9.1L115.1,18h-6.7L66.6,95.3c-1.7,2.8-2.7,5.9-3,9.1
			c-0.6,5.9,4.1,11,10.1,11h10.1c-1.8-1.3-3-3.4-2.7-5.8c0.2-2,0.9-4,1.9-5.8l12.4-23h-0.1l1.5-2.6l5.5-10.1v-16H102
			c-1.1,0-2-0.9-2-2.1s0.9-2.1,2-2.1h17.9c1.1,0,2,0.9,2,2.1s-0.9,2.1-2,2.1h-0.1v14.7l19.3,37c1.1,1.8,1.7,3.8,1.9,5.8
			c0.3,2.4-0.9,4.6-2.7,5.8h10.1C154.3,115.4,159.1,110.3,158.4,104.4z M108.1,41.6c-1.2,0-2.2-1-2.2-2.2s1-2.2,2.2-2.2
			s2.2,1,2.2,2.2C110.3,40.7,109.3,41.6,108.1,41.6z M113.3,34.9c-1.7,0-3.2-1.4-3.2-3.2c0-1.7,1.4-3.2,3.2-3.2
			c1.7,0,3.2,1.4,3.2,3.2C116.4,33.5,115,34.9,113.3,34.9z"/>
	</g>
</g>
</svg>
