<?xml version="1.0" encoding="utf-8"?>
<!-- Generator: Adobe Illustrator 23.0.0, SVG Export Plug-In . SVG Version: 6.00 Build 0)  -->
<svg version="1.1" id="Capa_1" xmlns="http://www.w3.org/2000/svg" xmlns:xlink="http://www.w3.org/1999/xlink" x="0px" y="0px"
	 viewBox="0 0 17.8 17.8" style="enable-background:new 0 0 17.8 17.8;" xml:space="preserve">
<style type="text/css">
	.st0{fill:#B3B3B3;}
</style>
<path class="st0" d="M11.6,2c-2.7-2.7-7-2.7-9.7,0.1c-2.6,2.7-2.5,7.1,0.2,9.7c2.4,2.3,6,2.4,8.6,0.5l5.2,5.2c0.4,0.4,1.1,0.4,1.5,0
	l0,0c0.4-0.4,0.4-1.1,0-1.5l-5.2-5.2C14.2,8.1,14,4.4,11.6,2z M10.1,10.1c-1.8,1.8-4.8,1.8-6.7,0s-1.8-4.8,0-6.7s4.8-1.8,6.7,0
	S11.9,8.3,10.1,10.1z"/>
</svg>
