<?xml version="1.0" encoding="utf-8"?>
<!-- Generator: Adobe Illustrator 23.0.0, SVG Export Plug-In . SVG Version: 6.00 Build 0)  -->
<svg version="1.1" id="Capa_1" xmlns="http://www.w3.org/2000/svg" xmlns:xlink="http://www.w3.org/1999/xlink" x="0px" y="0px"
	 viewBox="0 0 19.3 19.3" style="enable-background:new 0 0 19.3 19.3;" xml:space="preserve">
<style type="text/css">
	.st0{fill:#79040A;}
</style>
<g>
	<g id="Layer_1_107_">
		<g>
			<path class="st0" d="M19,3c-0.2-0.2-0.5-0.3-0.8-0.3H4.4L4.2,1.5C4.2,1,3.7,0.6,3.3,0.6H1c-0.6,0-1,0.4-1,1s0.4,1,1,1h1.4
				l1.9,11.2c0,0,0,0.1,0,0.1c0,0.1,0,0.1,0.1,0.2c0,0.1,0.1,0.1,0.1,0.2c0,0,0.1,0.1,0.1,0.1c0.1,0.1,0.1,0.1,0.2,0.1
				c0,0,0.1,0,0.1,0.1c0.1,0,0.2,0.1,0.4,0.1c0,0,11,0,11,0c0.6,0,1-0.4,1-1s-0.4-1-1-1H6.1l-0.2-1h11.3c0.5,0,0.9-0.4,1-0.9l1-7
				C19.3,3.5,19.2,3.2,19,3z M17.1,4.6l-0.3,2h-3.6v-2H17.1z M12.3,4.6v2h-3v-2H12.3z M12.3,7.6v2h-3v-2H12.3z M8.3,4.6v2h-3
				c-0.1,0-0.1,0-0.1,0l-0.3-2H8.3z M5.3,7.6h3v2H5.6L5.3,7.6z M13.3,9.6v-2h3.4l-0.3,2H13.3z"/>
			<circle class="st0" cx="6.8" cy="17.1" r="1.5"/>
			<circle class="st0" cx="15.8" cy="17.1" r="1.5"/>
		</g>
	</g>
</g>
</svg>
